<svg width="128" height="42" viewBox="0 0 128 42" fill="none" xmlns="http://www.w3.org/2000/svg">
<path d="M1.8551 22.987C2.15672 23.0197 2.4249 22.7952 2.45656 22.4842C2.45842 22.4631 2.46019 22.44 2.46019 22.4189C2.46019 22.0752 2.18837 21.7949 1.8551 21.7949C1.52184 21.7949 1.25001 22.0752 1.25001 22.4189C1.24815 22.7319 1.49381 22.987 1.79728 22.9889C1.8159 22.9889 1.83462 22.989 1.8551 22.987Z" fill="white"/>
<path d="M3.46057 22.9895C3.76218 23.0221 4.03037 22.7977 4.06202 22.4866C4.06389 22.4655 4.06566 22.4425 4.06566 22.4214C4.06566 22.0777 3.79384 21.7974 3.46057 21.7974C3.1273 21.7974 2.85548 22.0777 2.85548 22.4214C2.85362 22.7343 3.09928 22.9894 3.40275 22.9914C3.42137 22.9914 3.44009 22.9914 3.46057 22.9895Z" fill="white"/>
<path d="M4.88048 29.1269C4.57328 29.1019 4.30141 29.3381 4.27721 29.6549C4.27535 29.6664 4.27539 29.6778 4.27539 29.6912C4.27539 30.0349 4.54722 30.3152 4.88048 30.3152C5.21375 30.3152 5.48557 30.0349 5.48557 29.6912C5.47999 29.3725 5.22482 29.1188 4.91575 29.1246C4.90458 29.1246 4.89351 29.1249 4.88048 29.1269Z" fill="white"/>
<path d="M6.46447 29.1224C6.15727 29.0975 5.88726 29.3336 5.86119 29.6504C5.86119 29.6619 5.85938 29.6733 5.85938 29.6868C5.85938 30.0305 6.12934 30.3108 6.46447 30.3108C6.79959 30.3108 7.06956 30.0305 7.06956 29.6868C7.06583 29.37 6.81276 29.1163 6.50556 29.1202C6.49252 29.1202 6.47936 29.1205 6.46447 29.1224Z" fill="white"/>
<path d="M10.2161 26.052C10.1677 25.4127 10.6311 24.8562 11.251 24.8063C11.2957 24.8024 11.3424 24.8021 11.387 24.804C11.7948 24.8194 12.1953 24.9252 12.5583 25.1153L12.8598 24.1973C12.372 23.9611 11.8415 23.8288 11.3016 23.8058C10.272 23.7194 9.37082 24.5084 9.28704 25.5702C9.27959 25.6719 9.27959 25.7737 9.28704 25.8735C9.30566 26.3785 9.4079 26.8776 9.58849 27.348H7.53868V23.8673H6.5834V27.354H4.00304V23.8673H2.45977C0.977761 23.8673 0.000132549 24.8041 0.000132549 26.1135C-0.0129002 27.3347 0.936787 28.3351 2.11904 28.3485C2.18979 28.3485 2.26029 28.3464 2.33104 28.3407H13.0365V27.3462H10.659C10.3947 26.9698 10.2403 26.5205 10.2161 26.052ZM3.0685 27.3559H2.25104C1.5752 27.4231 0.974023 26.9122 0.90886 26.2133C0.905136 26.1787 0.903041 26.1425 0.903041 26.1079C0.903041 25.4148 1.45056 24.852 2.12268 24.852C2.1655 24.852 2.20822 24.8542 2.25104 24.8599H3.0685V27.3559Z" fill="white"/>
<path d="M21.5738 23.1916C21.8755 23.2242 22.1433 22.9993 22.1749 22.6902C22.1768 22.6672 22.1789 22.6461 22.1789 22.625C22.1789 22.2813 21.9071 22.001 21.5738 22.001C21.2406 22.001 20.9688 22.2813 20.9688 22.625C20.9688 22.9399 21.2161 23.1954 21.5233 23.1954C21.5401 23.1954 21.5571 23.1935 21.5738 23.1916Z" fill="white"/>
<path d="M23.1754 23.1938C23.4789 23.2188 23.7432 22.9863 23.7674 22.6733C23.7916 22.3604 23.5662 22.0878 23.2627 22.0628C23.2329 22.0609 23.2033 22.0609 23.1754 22.0628C22.8682 22.0379 22.5982 22.274 22.5721 22.5908C22.5721 22.6024 22.5703 22.6138 22.5703 22.6272C22.5703 22.9421 22.8199 23.1976 23.1252 23.1976C23.142 23.1957 23.1586 23.1958 23.1754 23.1938Z" fill="white"/>
<path d="M27.5046 23.7702C26.948 23.7875 26.4026 23.9447 25.9166 24.2289L26.2646 25.1352C26.6109 24.8895 27.0224 24.7609 27.4432 24.7647C28.605 24.7647 28.8283 26.1547 29.4781 27.3624H24.6094V23.8756H23.6545V27.3605H21.0665V26.153C21.0665 24.7284 20.2173 23.774 18.9494 23.774C17.674 23.774 16.8326 24.7262 16.8326 26.147V26.1279C16.8326 26.9784 16.4341 27.3605 15.6745 27.3605H15.0101V22.0576H14.0566V28.3512H15.6803C16.2965 28.4415 16.9089 28.1594 17.2552 27.6256C17.6722 28.1498 18.3166 28.4204 18.9701 28.3512H30.7646V27.3624C29.8486 26.9419 29.83 23.7702 27.5046 23.7702ZM20.113 27.3605H18.9421C18.3482 27.4162 17.823 26.965 17.769 26.3525C17.7616 26.2815 17.7637 26.2087 17.7712 26.1376C17.6949 25.4656 18.1621 24.8588 18.8119 24.7801C18.8547 24.7744 18.8993 24.7722 18.9421 24.7722C19.5937 24.7761 20.1189 25.3254 20.1152 25.9974C20.1152 26.0454 20.1113 26.0915 20.1057 26.1395L20.113 27.3605Z" fill="white"/>
<path d="M28.1117 29.1226C27.8045 29.1476 27.5736 29.4257 27.5997 29.7444C27.6239 30.0612 27.8939 30.2993 28.2029 30.2724C28.5101 30.2474 28.741 29.9694 28.7149 29.6506C28.7038 29.5047 28.6385 29.3683 28.5324 29.2704C28.417 29.1629 28.2662 29.1092 28.1117 29.1226Z" fill="white"/>
<path d="M35.3222 27.3583H31.9316V28.3528H36.2771V22.061H35.3222V27.3583Z" fill="white"/>
<path d="M33.9059 22.6743H32.9434V26.8252H33.9059V22.6743Z" fill="white"/>
<path d="M38.4803 22.0601H37.5254V28.3499H38.4803V22.0601Z" fill="white"/>
<path d="M41.873 22.4189C41.873 22.7626 42.143 23.0429 42.4781 23.0429C42.8114 23.0429 43.0832 22.7626 43.0832 22.4189C43.0832 22.0752 42.8133 21.7949 42.4781 21.7949C42.143 21.7949 41.873 22.0752 41.873 22.4189Z" fill="white"/>
<path d="M43.4707 22.4214C43.4707 22.765 43.7425 23.0454 44.0758 23.0454C44.4091 23.0454 44.6809 22.765 44.6809 22.4214C44.6809 22.0777 44.4091 21.7974 44.0758 21.7974C43.7425 21.7974 43.4707 22.0777 43.4707 22.4214Z" fill="white"/>
<path d="M45.4801 29.1269C45.1729 29.1019 44.9032 29.3381 44.8772 29.6549C44.8753 29.6664 44.875 29.6778 44.875 29.6912C44.875 30.0349 45.1468 30.3152 45.4801 30.3152C45.8134 30.3152 46.0852 30.0349 46.0852 29.6912C46.0796 29.3725 45.8248 29.1188 45.5157 29.1246C45.5046 29.1246 45.4913 29.1249 45.4801 29.1269Z" fill="white"/>
<path d="M47.0777 29.1224C46.7705 29.0975 46.5005 29.3336 46.4745 29.6504C46.4726 29.6619 46.4727 29.6733 46.4727 29.6868C46.4727 30.0305 46.7445 30.3108 47.0777 30.3108C47.411 30.3108 47.6828 30.0305 47.6828 29.6868C47.6791 29.37 47.4257 29.1163 47.1185 29.1202C47.1054 29.1202 47.0926 29.1205 47.0777 29.1224Z" fill="white"/>
<path d="M55.6346 23.1949C55.9362 23.2256 56.2062 22.9971 56.2379 22.686C56.2397 22.6649 56.2415 22.6419 56.2397 22.6208C56.2657 22.2771 56.018 21.9776 55.6848 21.9507C55.3515 21.9238 55.0611 22.1792 55.0331 22.5229C55.0071 22.8666 55.2548 23.1661 55.588 23.1949C55.6029 23.1949 55.6178 23.1949 55.6346 23.1949Z" fill="white"/>
<path d="M58.8453 22.0596C58.5381 22.0346 58.2681 22.2708 58.2421 22.5876C58.2421 22.5991 58.2402 22.6105 58.2402 22.624C58.2402 22.9676 58.5121 23.248 58.8453 23.248C59.1786 23.248 59.4504 22.9676 59.4504 22.624C59.4448 22.3052 59.1897 22.052 58.8806 22.0577C58.8676 22.0596 58.8565 22.0596 58.8453 22.0596Z" fill="white"/>
<path d="M59.9246 22.6207C59.893 22.9644 60.1368 23.268 60.4701 23.3006C60.8034 23.3333 61.0973 23.0817 61.129 22.74C61.1607 22.3982 60.9168 22.0928 60.5835 22.0601C60.5649 22.0582 60.5483 22.0582 60.5297 22.0582C60.2225 22.0314 59.9507 22.2675 59.9265 22.5862C59.9265 22.5978 59.9246 22.6092 59.9246 22.6207Z" fill="white"/>
<path d="M64.1095 27.352H62.1045V23.8653H61.1495V27.352H58.2525V23.8653H57.2972V27.352H54.5754V26.1441C54.5754 24.7195 53.7243 23.7655 52.4583 23.7655C51.1811 23.7655 50.3415 24.7177 50.3415 26.1385V26.1194C50.3415 26.97 49.9448 27.352 49.1852 27.352H48.2117V23.8653H47.223V27.352H44.6405V23.8653H43.0768C41.5948 23.8653 40.6154 24.8021 40.6154 26.1115C40.6023 27.3326 41.552 28.3331 42.7343 28.3465C42.805 28.3484 42.8755 28.3448 42.9463 28.339H49.1499C49.7662 28.4293 50.3789 28.1468 50.7252 27.613C51.1422 28.1372 51.7862 28.4101 52.4397 28.339H65.063V22.0566H64.1077L64.1095 27.352ZM43.6743 27.352H42.8663C42.1904 27.4192 41.5893 26.9083 41.5241 26.2094C41.5204 26.1748 41.5183 26.1386 41.5183 26.104C41.5201 25.409 42.0676 24.8485 42.7415 24.8504C42.7825 24.8504 42.8253 24.8521 42.8663 24.8579H43.6761L43.6743 27.352ZM53.6052 27.352H52.4343C51.8404 27.4077 51.3152 26.9565 51.2612 26.344C51.2556 26.273 51.2556 26.1998 51.263 26.1288C51.1867 25.4568 51.654 24.8504 52.3037 24.7716C52.3465 24.7659 52.3896 24.7638 52.4343 24.7638C53.0859 24.7676 53.6129 25.315 53.611 25.987C53.611 26.035 53.6071 26.083 53.6015 26.131L53.6052 27.352Z" fill="white"/>
<path d="M67.2616 22.0601H66.3066V28.3499H67.2616V22.0601Z" fill="white"/>
<path d="M70.5315 23.8672C69.0495 23.8672 68.0704 24.8021 68.0704 26.1134C68.0574 27.3346 69.0067 28.335 70.189 28.3484C70.2597 28.3484 70.3306 28.3467 70.4014 28.3409H71.1312C71.107 28.8843 70.7382 29.0549 70.2224 29.0549C69.7942 29.053 69.368 28.982 68.9603 28.8457L69.1537 29.8942C69.5149 29.9979 69.8875 30.0476 70.2599 30.0457C71.485 30.0457 72.101 29.5813 72.101 28.0837V23.8672H70.5315ZM71.1366 26.0831V27.3521H70.325C69.6492 27.4193 69.0476 26.9064 68.9824 26.2094C68.9787 26.1749 68.977 26.1386 68.977 26.1041C68.9789 25.409 69.5263 24.8485 70.2003 24.8504C70.2412 24.8504 70.284 24.8522 70.325 24.8579H71.1366V26.0831Z" fill="white"/>
<path d="M50.1165 16.0413C50.1165 14.6224 49.4855 13.8926 48.078 13.8926H47.4096V14.8777H48.214C48.8768 14.8777 49.2155 15.2272 49.2155 15.9472V17.3793H46.5605V18.372H50.1165V16.0413Z" fill="white"/>
<path d="M52.5491 18.1935V13.8926H51.5847V18.3547C51.5847 18.9787 51.3055 19.1842 50.9014 19.1842C50.7041 19.1842 50.5421 19.1689 50.2964 19.1478L50.2051 20.0081C50.4024 20.0542 50.6072 20.079 50.8102 20.0771C51.8342 20.0771 52.5491 19.6623 52.5491 18.1935Z" fill="white"/>
<path d="M54.6131 12.0796H53.6582V18.3698H54.6131V12.0796Z" fill="white"/>
<path d="M57.7625 18.3699H58.4905C58.47 18.9132 58.0994 19.0842 57.5818 19.0842C57.1536 19.0823 56.7255 19.0113 56.3178 18.875L56.5152 19.9231C56.8075 20.0268 57.1127 20.0788 57.4218 20.0769C58.5705 20.0769 59.3748 19.6678 59.4418 18.3699H61.4898C62.0781 18.4428 62.6554 18.1644 62.9756 17.6499C63.3927 18.174 64.037 18.4469 64.6905 18.3759H69.7621V12.0991H68.8069V17.4005H66.8149V16.1926C66.8149 14.768 65.9657 13.814 64.6978 13.814C63.4224 13.814 62.5811 14.7508 62.5811 16.187V16.1679C62.5811 17.0184 62.1825 17.4159 61.4229 17.4159H59.4792V13.8927H57.9152C56.4332 13.8927 55.4556 14.8276 55.4556 16.139C55.4295 17.4523 56.3699 18.3699 57.7625 18.3699ZM63.508 16.1487C63.4316 15.4787 63.8971 14.87 64.5469 14.7912C64.5916 14.7855 64.6346 14.7834 64.6792 14.7834C65.3309 14.7872 65.8561 15.3365 65.8523 16.0085C65.8523 16.0565 65.8485 16.1026 65.8429 16.1506V17.3791H64.6716C64.0795 17.4367 63.5547 16.9877 63.4989 16.3771C63.4914 16.3042 63.4932 16.2292 63.5007 16.1562L63.508 16.1487ZM56.3309 16.1487C56.3309 15.4556 56.878 14.8929 57.5502 14.8929C57.593 14.8929 57.6361 14.895 57.6789 14.9007H58.4905V16.1487V17.4177H57.6898C57.0139 17.4849 56.4128 16.974 56.3476 16.2751C56.3439 16.2406 56.3422 16.2043 56.3422 16.1697L56.3309 16.1487Z" fill="white"/>
<path d="M71.9569 12.0796H71.002V18.3698H71.9569V12.0796Z" fill="white"/>
<path d="M19.6422 13.0087C19.9438 13.0413 20.212 12.8169 20.2437 12.5058C20.2455 12.4847 20.2473 12.4654 20.2473 12.4443C20.2473 12.1006 19.9755 11.8203 19.6422 11.8203C19.3089 11.8203 19.0371 12.0987 19.0371 12.4443C19.0371 12.7573 19.283 13.0129 19.5884 13.0109C19.6051 13.0129 19.6236 13.0106 19.6422 13.0087Z" fill="white"/>
<path d="M18.0445 13.0087C18.3443 13.0413 18.6143 12.8169 18.646 12.5058C18.6479 12.4847 18.6496 12.4654 18.6496 12.4443C18.6496 12.1006 18.3797 11.8203 18.0445 11.8203C17.7094 11.8203 17.4395 12.0987 17.4395 12.4443C17.4395 12.7573 17.6872 13.0129 17.9907 13.0109C18.0093 13.0129 18.0259 13.0106 18.0445 13.0087Z" fill="white"/>
<path d="M18.5091 18.372H23.7389V13.8926H22.784V17.3793H20.2015V13.8926H18.6415C17.1595 13.8926 16.1819 14.8298 16.1819 16.1392C16.1651 17.3603 17.113 18.3645 18.2989 18.3798C18.366 18.3817 18.4365 18.3796 18.5091 18.372ZM17.0866 16.1373C17.0884 15.4423 17.6359 14.8814 18.3099 14.8833C18.3508 14.8833 18.3936 14.8854 18.4346 14.8912H19.2448V17.3872H18.4309C17.7551 17.4544 17.1539 16.9435 17.0888 16.2446C17.085 16.21 17.083 16.1756 17.083 16.1411L17.0866 16.1373Z" fill="white"/>
<path d="M32.2642 12.4948C32.5435 12.5236 32.793 12.3145 32.8209 12.0265C32.8228 12.0073 32.8227 11.9882 32.8227 11.971C32.8525 11.6522 32.6271 11.3679 32.318 11.3372C32.0089 11.3065 31.7336 11.5386 31.7038 11.8573C31.674 12.176 31.8991 12.4604 32.2082 12.4911C32.2268 12.493 32.2456 12.4948 32.2642 12.4948Z" fill="white"/>
<path d="M31.495 13.7408C31.7892 13.7177 32.0109 13.4509 31.9867 13.1475C31.9643 12.8442 31.7056 12.6156 31.4114 12.6405C31.1172 12.6636 30.8956 12.9304 30.9198 13.2338C30.9309 13.372 30.9906 13.5008 31.0892 13.5949C31.1991 13.7005 31.3461 13.7542 31.495 13.7408Z" fill="white"/>
<path d="M32.4654 13.1901C32.4357 13.5184 32.6703 13.81 32.9905 13.8407C33.3108 13.8715 33.5916 13.6295 33.6214 13.2992C33.6512 12.969 33.4147 12.6793 33.0963 12.6486C33.0796 12.6467 33.0629 12.6467 33.0462 12.6467C32.7539 12.6199 32.4952 12.8425 32.4673 13.144C32.4673 13.1593 32.4654 13.1747 32.4654 13.1901Z" fill="white"/>
<path d="M42.1429 12.0952H41.1876V17.3966H39.3127V13.8866H38.3578V17.3733H35.7753V13.8866H34.8204V17.3733H32.8113V14.5106H31.8487V17.3733H30.1062V14.5106H29.1509V17.3733H26.6858V13.7925H25.7233V18.3487C25.7233 18.9727 25.444 19.1782 25.04 19.1782C24.8427 19.1782 24.677 19.163 24.4349 19.14L24.3477 19.9998C24.5469 20.0459 24.7479 20.0711 24.9527 20.0692C25.9302 20.0692 26.643 19.6832 26.6877 18.3622H42.1538L42.1429 12.0952Z" fill="white"/>
<path d="M44.34 12.082H43.3848V18.3723H44.34V12.082Z" fill="white"/>
<path d="M21.5852 19.7138C21.5852 19.3702 21.3134 19.0898 20.9801 19.0898C20.6468 19.0898 20.375 19.3682 20.375 19.7138C20.375 20.0594 20.645 20.3378 20.9801 20.3378C21.3134 20.3378 21.5852 20.0594 21.5852 19.7138Z" fill="white"/>
<path d="M23.1828 19.7104C23.1828 19.3667 22.911 19.0864 22.5777 19.0864C22.2445 19.0864 21.9727 19.3648 21.9727 19.7104C21.9727 20.056 22.2445 20.3344 22.5777 20.3344C22.9129 20.3344 23.1828 20.056 23.1828 19.7104Z" fill="white"/>
<path d="M37.0532 19.1556C36.7441 19.1306 36.4745 19.3708 36.4503 19.6915C36.4503 19.7011 36.4481 19.7107 36.4481 19.7203C36.4164 20.064 36.6607 20.3672 36.9921 20.3998C37.3253 20.4325 37.6193 20.181 37.651 19.8392C37.6826 19.4975 37.4388 19.1924 37.1055 19.1597C37.0888 19.1559 37.0699 19.1556 37.0532 19.1556Z" fill="white"/>
<path d="M97.4927 10.4449C97.692 10.4718 97.8912 10.5101 98.0978 10.5446C99.0138 8.80319 100.083 7.15209 101.291 5.61225C98.2468 3.16809 94.8267 1.27104 91.1738 0L97.4927 10.4449ZM113.827 23.691L103.408 20.208L115.642 40.4085C116.364 34.7656 115.737 29.0267 113.819 23.691H113.827Z" fill="white"/>
<path d="M96.7438 15.9095C101.255 8.46185 107.138 3.02407 115.647 0.00390625L103.407 20.2082L91.1675 40.4105C90.0727 31.1907 92.2308 23.3572 96.7438 15.9095Z" fill="white"/>
<path d="M79.0977 12.0556L92.1173 16.4217C93.4988 15.6345 94.9157 14.9183 96.366 14.279C96.5541 13.8047 96.7551 13.3305 96.9711 12.8562C97.323 12.0613 97.7065 11.297 98.1031 10.5425C91.7431 9.43656 85.2174 9.95704 79.0977 12.0556ZM114.698 16.4217L103.407 20.2059L127.717 28.3524C124.297 23.4199 119.849 19.3398 114.698 16.4176V16.4217Z" fill="white"/>
<path d="M79.0977 28.3444L92.9907 23.6884C93.4953 22.2849 94.0761 20.914 94.7333 19.5796C95.1373 17.769 95.6827 15.997 96.366 14.2767C89.4512 17.2162 83.4711 22.0872 79.0977 28.3444ZM109.321 10.4423L103.407 20.2036L127.717 12.0608C121.797 10.0256 115.491 9.4708 109.321 10.4423Z" fill="white"/>
</svg>
