<svg width="161" height="48" viewBox="0 0 161 48" fill="none" xmlns="http://www.w3.org/2000/svg">
<path d="M146.439 22.3226C146.21 22.4883 146.063 22.7575 146.063 23.0475V30.3995C146.063 30.8966 146.46 31.2901 146.962 31.2901C147.463 31.2901 147.86 30.8966 147.86 30.3995V23.5031L155.734 18.0356C156.006 18.1806 156.298 18.2427 156.632 18.2427C157.697 18.2427 158.575 17.3936 158.575 16.3167C158.575 15.2605 157.718 14.3906 156.632 14.3906C155.567 14.3906 154.69 15.2397 154.69 16.3167C154.69 16.3995 154.69 16.4824 154.711 16.5445L146.439 22.3226Z" fill="url(#paint0_linear_2990_112284)"/>
<path d="M140.863 20.3749V27.7063C140.236 28.0376 139.818 28.6589 139.818 29.4045C139.818 30.4607 140.675 31.3305 141.761 31.3305C142.826 31.3305 143.703 30.4814 143.703 29.4045C143.703 28.6589 143.286 28.0169 142.659 27.7063V20.8512L154.314 12.7743C154.543 12.6086 154.69 12.3394 154.69 12.0494V6.58194C154.69 6.0849 154.293 5.69141 153.791 5.69141C153.29 5.69141 152.893 6.0849 152.893 6.58194V11.5731L141.239 19.65C140.988 19.795 140.842 20.0642 140.863 20.3749Z" fill="url(#paint1_linear_2990_112284)"/>
<path d="M154.815 22.8201L151.849 24.8911C151.431 25.1811 151.347 25.7195 151.64 26.1337C151.807 26.3823 152.099 26.5065 152.371 26.5065C152.559 26.5065 152.726 26.4651 152.893 26.3408L155.859 24.2698C156.277 23.9799 156.36 23.4414 156.068 23.0272C155.796 22.6337 155.232 22.5302 154.815 22.8201Z" fill="url(#paint2_linear_2990_112284)"/>
<path d="M160.496 28.0174C160.204 27.6032 159.64 27.4997 159.222 27.7896L145.165 37.5441L131.109 27.7896C130.691 27.4997 130.127 27.6032 129.834 28.0174C129.542 28.4316 129.647 28.9908 130.064 29.2808L143.578 38.6624L139.63 41.4169C139.359 41.2719 139.046 41.2098 138.732 41.2098C137.646 41.2098 136.769 42.0796 136.769 43.1565C136.769 44.2335 137.646 45.1033 138.732 45.1033C139.818 45.1033 140.696 44.2335 140.696 43.1565C140.696 43.0737 140.696 42.9909 140.675 42.908L145.186 39.7808L149.698 42.908C149.698 42.9909 149.677 43.0737 149.677 43.1565C149.677 44.2335 150.554 45.1033 151.64 45.1033C152.726 45.1033 153.603 44.2335 153.603 43.1565C153.603 42.0796 152.726 41.2098 151.64 41.2098C151.306 41.2098 151.014 41.2926 150.742 41.4169L146.794 38.6624L160.308 29.2808C160.684 28.9908 160.788 28.4316 160.496 28.0174Z" fill="url(#paint3_linear_2990_112284)"/>
<path d="M135.516 6.87194L138.482 4.80093C138.899 4.51099 138.983 3.97253 138.69 3.55833C138.523 3.3098 138.231 3.18555 137.959 3.18555C137.771 3.18555 137.604 3.22696 137.437 3.35123L134.471 5.42224C134.054 5.71218 133.97 6.25064 134.262 6.66484C134.534 7.05834 135.098 7.16189 135.516 6.87194Z" fill="url(#paint4_linear_2990_112284)"/>
<path d="M147.672 3.95239V8.86069L136.017 16.9376C135.787 17.1033 135.641 17.3725 135.641 17.6625V23.13C135.641 23.627 136.038 24.0205 136.539 24.0205C137.041 24.0205 137.437 23.627 137.437 23.13V18.1388L149.092 10.0619C149.322 9.8962 149.468 9.62696 149.468 9.33702V3.95239C150.095 3.62103 150.512 2.99973 150.512 2.25417C150.512 1.19795 149.656 0.328125 148.57 0.328125C147.505 0.328125 146.627 1.17724 146.627 2.25417C146.648 2.97902 147.066 3.62103 147.672 3.95239Z" fill="url(#paint5_linear_2990_112284)"/>
<path d="M133.678 15.2609C134.743 15.2609 135.62 14.4118 135.62 13.3349C135.62 13.252 135.62 13.1692 135.599 13.107L143.87 7.37034C144.1 7.20466 144.246 6.93542 144.246 6.64548V1.24014C144.246 0.743099 143.85 0.349609 143.348 0.349609C142.847 0.349609 142.45 0.743099 142.45 1.24014V6.18986L134.576 11.6366C134.304 11.4916 134.012 11.4295 133.678 11.4295C132.613 11.4295 131.735 12.2786 131.735 13.3556C131.756 14.4118 132.613 15.2609 133.678 15.2609Z" fill="url(#paint6_linear_2990_112284)"/>
<path d="M39.1443 15.0954C39.9171 14.3291 40.2931 13.2936 40.2931 12.0096C40.2931 10.7256 39.9171 9.71079 39.1443 8.94452C38.3924 8.19895 37.3689 7.82617 36.074 7.82617H33.2334V16.2345H36.074C37.3481 16.2345 38.3715 15.8617 39.1443 15.0954ZM34.967 14.7641V9.29659H36.0113C37.6614 9.29659 38.4759 10.1664 38.4759 12.0096C38.4759 13.8528 37.6405 14.7641 36.0113 14.7641H34.967Z" fill="#2D2766"/>
<path d="M43.2173 10.1055H41.5464V16.2357H43.2173V10.1055Z" fill="#2D2766"/>
<path d="M42.3817 9.2971C42.6741 9.2971 42.9247 9.21426 43.0918 9.04858C43.2589 8.8829 43.3425 8.65508 43.3425 8.38585C43.3425 8.11662 43.2589 7.88881 43.0918 7.72313C42.9247 7.55745 42.695 7.47461 42.3817 7.47461C42.0684 7.47461 41.8386 7.55745 41.6715 7.72313C41.5044 7.88881 41.4209 8.11662 41.4209 8.38585C41.4209 8.65508 41.5044 8.8829 41.6715 9.04858C41.8386 9.19355 42.0684 9.2971 42.3817 9.2971Z" fill="#2D2766"/>
<path d="M45.3903 10.8099C44.7846 11.3898 44.4922 12.1354 44.4922 13.1087C44.4922 14.02 44.7428 14.7241 45.265 15.2212C45.7872 15.7182 46.4764 15.9667 47.3954 15.9667C47.7714 15.9667 48.1473 15.9046 48.5233 15.7596V16.0289C48.5233 16.3809 48.398 16.6709 48.1265 16.8573C47.8758 17.0437 47.4999 17.1472 47.0195 17.1472C46.3929 17.1472 45.8498 17.0437 45.3485 16.8573L44.9935 18.162C45.6201 18.4105 46.3093 18.5348 47.103 18.5348C48.0638 18.5348 48.7948 18.307 49.3588 17.8306C49.9018 17.375 50.1734 16.7123 50.1734 15.8632V10.4578C49.4423 10.1472 48.6486 9.98151 47.7505 9.98151C46.7688 9.9608 45.9751 10.2507 45.3903 10.8099ZM48.5233 14.3721C48.2309 14.517 47.9385 14.5792 47.6461 14.5792C47.1866 14.5792 46.8315 14.4342 46.5808 14.1442C46.3302 13.8543 46.2049 13.4608 46.2049 12.9638C46.2049 12.4667 46.3511 12.0732 46.6226 11.7833C46.8942 11.4933 47.2701 11.3484 47.7714 11.3484C48.0011 11.3484 48.2518 11.3898 48.5442 11.4726V14.3721H48.5233Z" fill="#2D2766"/>
<path d="M53.4517 10.1055H51.7808V16.2357H53.4517V10.1055Z" fill="#2D2766"/>
<path d="M52.6165 9.2971C52.909 9.2971 53.1596 9.21426 53.3267 9.04858C53.4938 8.8829 53.5773 8.65508 53.5773 8.38585C53.5773 8.11662 53.4938 7.88881 53.3267 7.72313C53.1596 7.55745 52.9298 7.47461 52.6165 7.47461C52.3032 7.47461 52.0735 7.55745 51.9064 7.72313C51.7393 7.88881 51.6558 8.11662 51.6558 8.38585C51.6558 8.65508 51.7393 8.8829 51.9064 9.04858C52.0735 9.19355 52.3241 9.2971 52.6165 9.2971Z" fill="#2D2766"/>
<path d="M58.485 16.2557L58.4015 14.9302C58.1926 14.9717 57.9837 14.9924 57.754 14.9924C57.19 14.9924 56.9185 14.661 56.9185 13.9776V11.4095H58.2552V10.0841H56.9185V8.67578L55.2476 8.75862V10.0841H54.4121V11.4095H55.2476V13.9983C55.2476 15.5722 55.9786 16.3592 57.4198 16.3592C57.8375 16.3799 58.1926 16.3385 58.485 16.2557Z" fill="#2D2766"/>
<path d="M61.556 12.6107C60.825 12.6107 60.2402 12.797 59.7807 13.1284C59.3421 13.4598 59.1123 13.9568 59.1123 14.516C59.1123 15.0752 59.3212 15.5308 59.7598 15.8829C60.1775 16.2349 60.8041 16.4006 61.5978 16.4006C62.663 16.4006 63.5403 16.2142 64.2295 15.8621V12.5278C64.2295 11.6994 63.9998 11.0781 63.5612 10.6432C63.1225 10.2083 62.4542 9.98047 61.5769 9.98047C60.7623 9.98047 60.0731 10.1047 59.4883 10.3325L59.7807 11.6373C60.2402 11.4509 60.7832 11.3473 61.3889 11.3473C62.2035 11.3473 62.6213 11.6994 62.6213 12.4243V12.7142C62.2244 12.6314 61.8693 12.6107 61.556 12.6107ZM62.6213 15.013C62.4124 15.1166 62.1409 15.1787 61.7858 15.1787C61.1174 15.1787 60.7832 14.9302 60.7832 14.4124C60.7832 13.8947 61.1174 13.6254 61.7858 13.6254C62.0573 13.6254 62.3497 13.6462 62.6421 13.729V15.013H62.6213Z" fill="#2D2766"/>
<path d="M68.0308 15.0135C67.5922 15.0135 67.3833 14.6821 67.3833 14.0194V7.53711L65.7124 7.64066V14.0401C65.7124 15.5933 66.3599 16.3803 67.6549 16.3803C67.9055 16.3803 68.1979 16.3596 68.4903 16.2768L68.365 14.972C68.2815 14.9928 68.177 15.0135 68.0308 15.0135Z" fill="#2D2766"/>
<path d="M4.91139 27.2939H6.31079V29.1578C5.95572 29.2407 5.62153 29.2821 5.28735 29.2821C4.49366 29.2821 3.86706 29.0336 3.44933 28.5573C3.03159 28.0809 2.82273 27.3975 2.82273 26.5484C2.82273 25.6164 3.03159 24.9123 3.44933 24.3945C3.86706 23.8768 4.49365 23.6283 5.30823 23.6283C5.97661 23.6283 6.6032 23.7525 7.18803 23.9803L7.58488 22.5306C6.91651 22.2407 6.1437 22.0957 5.28735 22.0957C3.97149 22.0957 2.92716 22.5099 2.17524 23.3176C1.42332 24.146 1.04736 25.2436 1.04736 26.5277C1.04736 27.8117 1.42332 28.8472 2.15435 29.6135C2.88539 30.3797 3.90883 30.7732 5.22469 30.7732C6.1437 30.7732 7.04182 30.5454 7.89818 30.1105V25.8649H4.93228V27.2939H4.91139Z" fill="#2D2766"/>
<path d="M12.0129 24.3535C11.073 24.3535 10.342 24.6435 9.79895 25.2233C9.2559 25.8032 8.98438 26.5902 8.98438 27.5429C8.98438 28.4955 9.2559 29.2825 9.79895 29.8831C10.342 30.4837 11.073 30.7737 12.0129 30.7737C12.9319 30.7737 13.6839 30.4837 14.206 29.9038C14.7491 29.3239 15.0206 28.537 15.0206 27.5636C15.0206 26.5902 14.7491 25.8239 14.206 25.2441C13.6839 24.6435 12.9528 24.3535 12.0129 24.3535ZM12.9737 28.9097C12.744 29.2411 12.4307 29.4068 12.0129 29.4068C11.5952 29.4068 11.261 29.2411 11.0313 28.9097C10.8015 28.5784 10.6762 28.1228 10.6762 27.5636C10.6762 27.0044 10.8015 26.5488 11.0313 26.2174C11.261 25.8861 11.5952 25.7204 12.0129 25.7204C12.4307 25.7204 12.7649 25.8861 12.9737 26.1967C13.2035 26.5281 13.3079 26.963 13.3079 27.5429C13.3288 28.1435 13.2035 28.5784 12.9737 28.9097Z" fill="#2D2766"/>
<path d="M19.6574 30.6282C20.284 29.5513 20.7435 28.5572 21.0568 27.646C21.3492 26.7347 21.5581 25.6992 21.6834 24.498H20.0124C19.9707 25.4714 19.8245 26.3412 19.6156 27.0868C19.4067 27.8324 19.0934 28.5779 18.7175 29.3028C17.9864 27.8531 17.5478 26.2584 17.4434 24.498H15.7725C15.856 25.6992 16.0649 26.7347 16.3573 27.6253C16.6497 28.5158 17.151 29.5099 17.7985 30.6282H19.6574Z" fill="#2D2766"/>
<path d="M25.6098 30.7737C26.4243 30.7737 27.1136 30.6287 27.7193 30.3595L27.4478 29.034C26.8839 29.2618 26.3408 29.3861 25.7769 29.3861C24.7952 29.3861 24.2313 28.9305 24.085 27.9985H27.9073C27.9491 27.6671 27.9491 27.3772 27.9491 27.0872C27.9491 26.2796 27.7193 25.6168 27.2389 25.1198C26.7585 24.6227 26.1319 24.3535 25.3382 24.3535C24.461 24.3535 23.73 24.6435 23.166 25.2441C22.6021 25.8446 22.3306 26.5695 22.3306 27.5636C22.3306 28.5577 22.623 29.3239 23.2287 29.9038C23.8344 30.4837 24.6281 30.7737 25.6098 30.7737ZM24.4819 26.031C24.7116 25.8032 24.9832 25.679 25.3382 25.679C25.6724 25.679 25.9022 25.7825 26.0902 26.0103C26.2781 26.2174 26.3617 26.5074 26.3617 26.8387V26.9837H24.0642C24.1268 26.5695 24.273 26.2588 24.4819 26.031Z" fill="#2D2766"/>
<path d="M32.6278 25.8247L32.8575 24.4786C32.5651 24.4164 32.21 24.375 31.7714 24.375C30.7898 24.375 29.9334 24.5614 29.2441 24.8928V30.6295H30.9151V25.9283C31.2075 25.804 31.5417 25.7212 31.9176 25.7212C32.21 25.7212 32.4398 25.7419 32.6278 25.8247Z" fill="#2D2766"/>
<path d="M37.6614 26.9431V30.6502H39.3323V26.8395C39.3323 26.0525 39.0817 25.4312 38.6013 25.017C38.1209 24.6028 37.4316 24.375 36.5335 24.375C35.531 24.375 34.6328 24.5614 33.7974 24.9135V30.6709H35.4683V25.9697C35.7816 25.8247 36.1367 25.7626 36.5335 25.7626C37.2854 25.7212 37.6614 26.1354 37.6614 26.9431Z" fill="#2D2766"/>
<path d="M47.2492 24.3535C46.6017 24.3535 45.9334 24.5192 45.2859 24.8506C44.8681 24.5192 44.2833 24.3535 43.5732 24.3535C42.5706 24.3535 41.6725 24.5399 40.8579 24.892V30.6494H42.5288V25.9482C42.8421 25.8032 43.1554 25.7411 43.5105 25.7411C43.8865 25.7411 44.158 25.8446 44.346 26.031C44.5131 26.2381 44.5966 26.5281 44.5966 26.9423V30.6494H46.2258V27.1494C46.2258 26.7352 46.184 26.3417 46.0796 26.031C46.4346 25.8446 46.8106 25.7411 47.2074 25.7411C47.9385 25.7411 48.2936 26.1553 48.2936 26.963V30.6701H49.9645V26.8594C49.9645 26.0725 49.7347 25.4719 49.2752 25.037C48.7739 24.5813 48.1056 24.3535 47.2492 24.3535Z" fill="#2D2766"/>
<path d="M54.413 30.7737C55.2276 30.7737 55.9168 30.6287 56.5225 30.3595L56.251 29.034C55.6871 29.2618 55.144 29.3861 54.5801 29.3861C53.5984 29.3861 53.0345 28.9305 52.8883 27.9985H56.7105C56.7523 27.6671 56.7523 27.3772 56.7523 27.0872C56.7523 26.2796 56.5225 25.6168 56.0421 25.1198C55.5618 24.6227 54.9352 24.3535 54.1415 24.3535C53.2642 24.3535 52.5332 24.6435 51.9693 25.2441C51.4053 25.8446 51.1338 26.5695 51.1338 27.5636C51.1338 28.5577 51.4262 29.3239 52.0319 29.9038C52.6376 30.4837 53.4313 30.7737 54.413 30.7737ZM53.2851 26.031C53.5149 25.8032 53.7864 25.679 54.1415 25.679C54.4757 25.679 54.7054 25.7825 54.8934 26.0103C55.0814 26.2174 55.1649 26.5074 55.1649 26.8387V26.9837H52.8674C52.9092 26.5695 53.0554 26.2588 53.2851 26.031Z" fill="#2D2766"/>
<path d="M59.6763 25.9478C59.9896 25.8028 60.3447 25.7407 60.7415 25.7407C61.4934 25.7407 61.8694 26.1549 61.8694 26.9626V30.6697H63.5403V26.859C63.5403 26.072 63.2897 25.4507 62.8093 25.0365C62.3289 24.6223 61.6396 24.3945 60.7415 24.3945C59.739 24.3945 58.8408 24.5809 58.0054 24.933V30.6904H59.6763C59.6763 30.6283 59.6763 25.9478 59.6763 25.9478Z" fill="#2D2766"/>
<path d="M68.4068 29.3228C68.198 29.3642 67.9891 29.3849 67.7593 29.3849C67.1954 29.3849 66.9239 29.0536 66.9239 28.3701V25.8021H68.2606V24.4766H66.9239V23.0684L65.2529 23.1512V24.4766H64.4175V25.8021H65.2529V28.4116C65.2529 29.9855 65.984 30.7725 67.4252 30.7725C67.8429 30.7725 68.198 30.7311 68.4695 30.669L68.4068 29.3228Z" fill="#2D2766"/>
<path d="M19.7204 36.6348C18.7178 38.7265 17.7571 41.5223 16.7754 45.0431H18.5508C18.7178 44.3803 18.8849 43.759 19.052 43.1999H22.1641L22.6654 45.0431H24.4408C23.5009 41.6052 22.5192 38.7886 21.4958 36.6348H19.7204ZM19.4907 41.7294C19.9502 40.1762 20.3261 39.0993 20.6185 38.4573C20.8901 39.0164 21.266 40.1141 21.7464 41.7294H19.4907Z" fill="#2D2766"/>
<path d="M29.2026 43.593C28.8893 43.738 28.5551 43.8001 28.1583 43.8001C27.4273 43.8001 27.0513 43.3859 27.0513 42.5989V38.8918H25.3804V42.5989C25.3804 43.4273 25.5892 44.0486 26.007 44.5042C26.4247 44.9392 27.114 45.167 28.0956 45.167C29.0773 45.167 29.9963 44.9806 30.8527 44.6285V38.8711H29.1817V43.593H29.2026Z" fill="#2D2766"/>
<path d="M35.1548 43.801C34.5909 43.801 34.3194 43.4696 34.3194 42.7862V40.2181H35.6561V38.8927H34.3194V37.4844L32.6485 37.5672V38.8927H31.813V40.2181H32.6485V42.8069C32.6485 44.3808 33.3795 45.1678 34.8207 45.1678C35.2384 45.1678 35.5935 45.1264 35.865 45.0643L35.7814 43.7388C35.5935 43.7802 35.3637 43.801 35.1548 43.801Z" fill="#2D2766"/>
<path d="M39.8343 38.7473C39.333 38.7473 38.9362 38.8301 38.5811 38.9958V36.3242L36.9102 36.4071V45.0225H38.5811V40.3627C38.8944 40.2177 39.2286 40.1349 39.5628 40.1349C40.3564 40.1349 40.7533 40.5491 40.7533 41.3568V45.0432H42.4242V41.2325C42.4242 40.4455 42.1945 39.8449 41.7141 39.41C41.2337 38.9751 40.628 38.7473 39.8343 38.7473Z" fill="#2D2766"/>
<path d="M46.6643 38.7676C45.7244 38.7676 44.9934 39.0575 44.4503 39.6374C43.9073 40.2173 43.6357 41.0043 43.6357 41.9569C43.6357 42.9096 43.9073 43.6966 44.4503 44.2972C44.9934 44.8978 45.7244 45.1877 46.6643 45.1877C47.5833 45.1877 48.3352 44.8978 48.8574 44.3179C49.4005 43.738 49.672 42.951 49.672 41.9776C49.672 41.0043 49.4005 40.238 48.8574 39.6581C48.3143 39.0575 47.5833 38.7676 46.6643 38.7676ZM47.6251 43.3238C47.3953 43.6552 47.082 43.8209 46.6643 43.8209C46.2466 43.8209 45.9124 43.6552 45.6826 43.3238C45.4529 42.9924 45.3276 42.5368 45.3276 41.9776C45.3276 41.4185 45.4529 40.9629 45.6826 40.6315C45.9124 40.3001 46.2466 40.1344 46.6643 40.1344C47.082 40.1344 47.4162 40.3001 47.6251 40.6108C47.8548 40.9421 47.9593 41.3771 47.9593 41.9569C47.9593 42.5368 47.834 42.9924 47.6251 43.3238Z" fill="#2D2766"/>
<path d="M50.9458 39.2853V45.022H52.6167V40.3208C52.9091 40.1759 53.2433 40.1137 53.6193 40.1137C53.9117 40.1137 54.1415 40.1344 54.3294 40.2173L54.5592 38.8711C54.2668 38.809 53.9117 38.7676 53.4731 38.7676C52.4914 38.7676 51.6559 38.9333 50.9458 39.2853Z" fill="#2D2766"/>
<path d="M56.3558 36.2402C56.0425 36.2402 55.8127 36.3231 55.6457 36.4888C55.4786 36.6544 55.395 36.8823 55.395 37.1515C55.395 37.4207 55.4786 37.6485 55.6457 37.8142C55.8127 37.9799 56.0634 38.0627 56.3558 38.0627C56.6482 38.0627 56.8989 37.9799 57.0659 37.8142C57.233 37.6485 57.3166 37.4207 57.3166 37.1515C57.3166 36.8823 57.233 36.6544 57.0659 36.4888C56.8989 36.3231 56.6691 36.2402 56.3558 36.2402Z" fill="#2D2766"/>
<path d="M57.1905 38.9121H55.5195V45.0423H57.1905V38.9121Z" fill="#2D2766"/>
<path d="M61.4937 43.801C60.9298 43.801 60.6582 43.4696 60.6582 42.7862V40.2181H61.995V38.8927H60.6582V37.4844L58.9873 37.5672V38.8927H58.1519V40.2181H58.9873V42.8069C58.9873 44.3808 59.7184 45.1678 61.1595 45.1678C61.5773 45.1678 61.9323 45.1264 62.2039 45.0643L62.1203 43.7388C61.9323 43.7802 61.7235 43.801 61.4937 43.801Z" fill="#2D2766"/>
<path d="M66.4853 41.3973C66.3391 42.06 66.0884 42.7435 65.7751 43.4269C64.9397 42.0186 64.4802 40.5275 64.4175 38.9121H62.7466C62.8301 40.0512 63.0599 41.0867 63.3941 41.9772C63.7491 42.8677 64.2504 43.779 64.9188 44.6902C64.7308 44.9802 64.4593 45.2494 64.0833 45.4565C63.7074 45.6843 63.3314 45.8086 62.9554 45.8707L63.227 47.279C64.6264 47.0512 65.7751 46.1399 66.715 44.5245C67.7385 42.7228 68.3233 40.8589 68.4695 38.9121H66.7986C66.7568 39.8855 66.6524 40.7139 66.4853 41.3973Z" fill="#2D2766"/>
<path d="M75.8003 14.9931C76.2807 15.3037 76.9281 15.4487 77.7636 15.4487C78.0978 15.4487 78.4737 15.428 78.8706 15.3866C79.163 16.0079 79.7687 16.3185 80.6877 16.3185H81.3143H84.2176H87.0999H87.4341C88.374 16.3185 89.0633 16.1321 89.5228 15.7594C90.024 16.1321 90.7342 16.3185 91.6114 16.3185H91.9038H91.9247H94.828H97.7312H98.0654C99.0053 16.3185 99.6946 16.1321 100.154 15.7594C100.655 16.1321 101.365 16.3185 102.243 16.3185H102.535H102.556H105.459H108.362H111.266H111.558C112.519 16.3185 113.334 16.1736 114.002 15.8629C115.046 16.4221 116.111 16.6913 117.218 16.6913C118.179 16.6913 118.68 16.0079 118.68 14.5996C118.68 13.5434 118.221 12.5907 117.281 11.7623C116.341 10.9339 115.192 10.3954 113.835 10.1262C112.77 11.2239 112.227 12.3008 112.227 13.3777C112.227 13.7712 112.331 14.144 112.519 14.496C112.143 14.5375 111.767 14.5582 111.412 14.5582H111.245H108.342H105.438H102.556H102.493C101.888 14.5582 101.365 14.496 100.927 14.3511C100.969 14.0818 100.99 13.7505 100.99 13.4191V11.783L99.5275 11.8866V13.5641C99.5275 13.8747 99.423 14.1233 99.2142 14.2889C99.0053 14.4546 98.5667 14.5375 97.9192 14.5375H97.7312H94.828H91.9247H91.8621C91.2564 14.5375 90.7342 14.4753 90.2956 14.3304C90.3373 14.0611 90.3582 13.7298 90.3582 13.3984V11.7623L88.8962 11.8659V13.5434C88.8962 13.854 88.7917 14.1026 88.5829 14.2682C88.374 14.4339 87.9354 14.5168 87.2879 14.5168H87.0999H84.1967H81.2934H81.1472C80.6877 14.5168 80.3744 14.4546 80.2073 14.3097C80.0402 14.1854 79.9567 13.9162 79.9567 13.5227V10.002C79.0795 10.002 78.2649 10.1469 77.5339 10.4162C76.8028 10.6854 76.1971 11.0996 75.7376 11.6588C75.2781 12.1972 75.0483 12.8392 75.0483 13.5434C75.0692 14.2268 75.3199 14.6824 75.8003 14.9931ZM116.279 12.8599C117.01 13.4813 117.365 14.1647 117.365 14.8895C117.365 15.0966 117.239 15.2002 117.03 15.2002C116.634 15.2002 116.091 15.0759 115.401 14.8067C115.986 14.2061 116.279 13.5641 116.279 12.8599ZM113.939 11.8244C114.754 12.0315 115.172 12.425 115.172 13.0049C115.172 13.1706 115.088 13.3777 114.9 13.5848C114.733 13.7919 114.461 13.999 114.106 14.1854C113.626 13.8747 113.375 13.5227 113.375 13.0878C113.396 12.6943 113.584 12.2594 113.939 11.8244ZM76.9699 12.3008C77.3876 11.9901 77.9307 11.8037 78.5991 11.7209V13.8955C78.4737 13.9162 78.2858 13.9162 78.0351 13.9162C77.4921 13.9162 77.0743 13.854 76.7819 13.7091C76.4895 13.5641 76.3433 13.3984 76.3433 13.1913C76.3642 12.9221 76.5522 12.6114 76.9699 12.3008Z" fill="#2D2766"/>
<path d="M78.1401 8.57144L79.1009 9.35842V9.37913L79.9572 8.42647L78.9338 7.55664L78.1819 8.42647L77.2211 7.59806L76.3647 8.57144L77.3882 9.39985L78.1401 8.57144Z" fill="#2D2766"/>
<path d="M87.7477 11.5132C88.6458 11.1611 89.5231 10.9333 90.4212 10.7676L90.275 10.022C89.7737 10.1256 89.4186 10.1877 89.2515 10.1877C89.0427 10.1877 88.8756 10.1256 88.7503 10.022C88.6458 9.89778 88.5832 9.77352 88.5832 9.60784C88.5832 9.46287 88.6458 9.35932 88.7503 9.27648C88.8756 9.19364 89.0009 9.15222 89.1889 9.15222C89.3977 9.15222 89.6066 9.19364 89.8364 9.25577L90.087 8.59304C89.7528 8.42736 89.4604 8.36523 89.0844 8.36523C88.7085 8.36523 88.437 8.46878 88.1863 8.69659C87.9357 8.90369 87.8104 9.19364 87.8104 9.56642C87.8104 10.0013 87.9775 10.312 88.2908 10.5398C88.1028 10.6019 87.8521 10.7055 87.4971 10.8504L87.7477 11.5132Z" fill="#2D2766"/>
<path d="M100.739 18.0991L99.7365 17.25L98.9846 18.0991L98.0029 17.2707L97.1675 18.2441L98.1909 19.0932L98.9428 18.2441L99.9036 19.0518L100.739 18.0991Z" fill="#2D2766"/>
<path d="M79.8524 22.821L78.8498 21.9512L78.0979 22.821L77.1371 21.9926L76.2808 22.966L77.3042 23.7944L78.0561 22.966L79.0169 23.7737L79.8524 22.821Z" fill="#2D2766"/>
<path d="M75.6964 29.386C76.1768 29.6967 76.8243 29.8417 77.6598 29.8417C77.9939 29.8417 78.3699 29.8209 78.7668 29.7795C79.0592 30.4008 79.6649 30.7115 80.5839 30.7115H81.2105H84.1137H84.2182C84.8239 30.7115 85.3043 30.5251 85.7011 30.1316C86.4113 30.5251 87.2467 30.7322 88.2075 30.7322C89.043 30.7322 89.6905 30.6494 90.2126 30.463C90.4842 29.8417 90.6304 29.0754 90.6304 28.3091C90.6304 27.5221 90.4215 26.8594 89.9829 26.3209C89.5651 25.7825 89.0012 25.5132 88.3119 25.5132C87.6853 25.5132 87.2049 25.6789 86.8499 25.9896C86.4948 26.3002 86.1606 26.7559 85.8473 27.3565C85.8473 27.3772 85.8264 27.3979 85.8264 27.4186C85.8264 27.4393 85.8055 27.46 85.8055 27.4807C85.8055 27.5014 85.7847 27.5221 85.7638 27.5428C85.5131 28.0399 85.2834 28.4127 85.0954 28.6405C84.9074 28.8683 84.6568 28.9718 84.3435 28.9718H84.1346H84.1137H81.2523H81.1061C80.6465 28.9718 80.3333 28.9097 80.1662 28.7647C79.9991 28.6405 79.9155 28.3712 79.9155 27.9778V24.457C79.0383 24.457 78.2237 24.602 77.4927 24.8712C76.7616 25.1405 76.1559 25.5547 75.6964 26.1138C75.2369 26.6523 75.0072 27.2943 75.0072 27.9985C74.9863 28.6198 75.216 29.0754 75.6964 29.386ZM86.7037 28.6198C87.0379 27.9985 87.2885 27.5635 87.4974 27.3772C87.7062 27.1701 87.9569 27.0665 88.2702 27.0665C88.5835 27.0665 88.8341 27.2115 89.0221 27.4807C89.2101 27.7499 89.2936 28.102 89.2936 28.5162C89.2936 28.7026 89.2727 28.9097 89.2518 29.1168C89.0012 29.1375 88.7714 29.1582 88.5208 29.1582C87.7898 29.1582 87.1632 29.0547 86.641 28.8683C86.6201 28.8062 86.641 28.7233 86.7037 28.6198ZM76.887 26.7144C77.3047 26.4038 77.8477 26.2174 78.5161 26.1346V28.3091C78.3908 28.3298 78.2028 28.3298 77.9522 28.3298C77.4091 28.3298 76.9914 28.2677 76.699 28.1227C76.4066 27.9777 76.2604 27.8121 76.2604 27.605C76.2604 27.315 76.4692 27.0044 76.887 26.7144Z" fill="#2D2766"/>
<path d="M114.044 22.138C114.065 24.1676 114.086 25.7623 114.086 26.9013C114.086 27.6883 114.065 28.351 114.044 28.8481C113.647 28.9309 113.209 28.9723 112.728 28.9723H112.624H112.436C111.956 28.9723 111.58 28.9102 111.287 28.7652C110.995 28.6203 110.598 28.3096 110.055 27.8333C109.366 27.212 108.927 26.8185 108.76 26.6735C107.778 25.8244 106.984 25.4102 106.358 25.4102C105.898 25.4102 105.522 25.5552 105.188 25.8244C104.875 26.0936 104.583 26.5493 104.353 27.1706L105.439 27.5848C105.585 27.3569 105.71 27.1913 105.836 27.1084C105.961 27.0256 106.107 26.9842 106.295 26.9842C106.734 26.9842 107.548 27.5641 108.781 28.7031C107.674 28.9102 106.17 29.0138 104.269 29.0138H103.81H103.664C103.538 29.0138 103.455 28.993 103.35 28.9723C103.267 28.9516 103.183 28.9102 103.12 28.8895C103.058 28.8688 102.995 28.8067 102.912 28.7031C102.828 28.5996 102.765 28.5374 102.745 28.496C102.703 28.4546 102.64 28.351 102.557 28.2061C102.473 28.0611 102.389 27.9575 102.369 27.9161C102.16 27.6055 101.993 27.357 101.888 27.212C101.763 27.067 101.575 26.8185 101.324 26.5285C101.074 26.2179 100.781 25.9487 100.468 25.7001C100.155 25.4516 99.7995 25.2238 99.4027 25.0167C100.531 24.3126 101.825 23.7741 103.288 23.422V21.8066C101.345 22.2623 99.5697 23.0285 98.0032 24.1262V26.0729C98.7761 26.4043 99.3818 26.7771 99.8204 27.1913C100.259 27.6055 100.656 28.0818 100.99 28.641C100.259 28.8895 99.2147 29.0345 97.8362 29.0345H97.6273H96.938C96.9171 27.8954 96.6456 26.9842 96.1652 26.3422C95.6639 25.6794 95.0373 25.3481 94.2645 25.3481C93.5753 25.3481 92.9905 25.638 92.5101 26.2179C92.0506 26.7978 91.8208 27.5019 91.8208 28.3303C91.8208 29.0345 91.9879 29.5936 92.343 29.9871C92.698 30.3806 93.3038 30.5877 94.181 30.5877C94.6614 30.5877 95.1 30.567 95.4342 30.5256C95.3089 30.8362 95.0373 31.1262 94.6196 31.3954C94.2019 31.6439 93.6379 31.7889 92.9278 31.7889C92.5936 31.7889 92.2594 31.7682 91.967 31.7061L91.8208 33.1351C92.2803 33.2593 92.7398 33.3215 93.1575 33.3215C95.0791 33.3215 96.2905 32.4724 96.7501 30.7741H97.6273H97.8988C99.5697 30.7741 100.886 30.5463 101.888 30.07C102.306 30.5463 102.891 30.7741 103.643 30.7741H103.831H103.977C106.149 30.7741 108.175 30.5256 110.117 29.9871C110.493 30.2771 110.828 30.4842 111.162 30.5877C111.496 30.712 111.893 30.7741 112.352 30.7741H112.582H112.603H112.666C113.125 30.7741 113.606 30.712 114.107 30.6084C114.608 30.5049 114.984 30.3599 115.276 30.2149C115.402 29.8215 115.485 29.3658 115.527 28.8481C115.569 28.3303 115.59 27.6262 115.59 26.7149C115.59 25.7208 115.59 24.1676 115.59 22.0759L114.044 22.138ZM94.6614 28.9723C94.0974 28.9723 93.7006 28.8895 93.45 28.7238C93.2202 28.5581 93.0949 28.3096 93.0949 28.0197C93.0949 27.709 93.1784 27.4398 93.3664 27.1913C93.5544 26.9635 93.805 26.8392 94.1392 26.8392C94.557 26.8392 94.8911 27.067 95.1209 27.5019C95.3715 27.9575 95.4969 28.4339 95.5386 28.9723H94.6614Z" fill="#2D2766"/>
<path d="M117.031 30.7111H118.556V21.9922L117.031 22.1372V30.7111Z" fill="#2D2766"/>
<path d="M80.0827 37.2143L79.0593 36.3652L78.3074 37.2143L77.3466 36.3859L76.4902 37.3593L77.5137 38.2084L78.2656 37.3593L79.2264 38.167L80.0827 37.2143Z" fill="#2D2766"/>
<path d="M85.5969 46.9069L84.6153 46.0785L83.7798 47.0519L84.8032 47.8803L85.5552 47.0519L86.5159 47.8596L87.3514 46.9069L86.3489 46.0371L85.5969 46.9069Z" fill="#2D2766"/>
<path d="M104.98 36.3237L103.956 35.4746L103.204 36.3237L102.244 35.4953L101.387 36.4687L102.411 37.3178L103.163 36.4687L104.123 37.2764L104.98 36.3237Z" fill="#2D2766"/>
<path d="M105.022 38.8707C104.541 38.1665 103.935 37.8145 103.183 37.8145C102.515 37.8145 101.951 38.0837 101.492 38.6429C101.032 39.202 100.802 39.8648 100.802 40.6724C100.802 41.9772 101.533 42.6192 102.996 42.6192C103.539 42.6192 104.019 42.5571 104.458 42.4121C104.458 42.5985 104.458 42.8056 104.416 43.0127C103.559 43.2405 102.139 43.3648 100.176 43.3648H99.9461C99.9252 43.3648 99.9043 43.3648 99.9043 43.3648H99.6954C99.2986 43.3648 99.0271 43.3026 98.8809 43.1577C98.7347 43.0127 98.6093 42.702 98.5049 42.2464C98.1289 40.6932 97.377 39.9062 96.27 39.9062C95.6643 39.9062 95.163 40.0511 94.808 40.3618C94.4529 40.6724 94.1187 41.1281 93.8054 41.7287C93.8054 41.7494 93.7845 41.7701 93.7636 41.7908C93.7427 41.8115 93.7427 41.8322 93.7219 41.8529C93.701 41.8736 93.701 41.8736 93.701 41.8943C93.5548 42.1636 93.4503 42.3707 93.3877 42.4949C93.325 42.6192 93.2206 42.7642 93.1161 42.9091C92.9908 43.0748 92.8655 43.1784 92.7402 43.2405C92.6149 43.3026 92.4687 43.3233 92.3016 43.3233H92.0927H89.1895H89.1268C88.5211 43.3233 87.9989 43.2612 87.5603 43.1162C87.6021 42.847 87.623 42.5156 87.623 42.1843V40.5482L86.1609 40.6517V42.3293C86.1609 42.6399 86.0565 42.8884 85.8476 43.0541C85.6387 43.2198 85.2001 43.3026 84.5526 43.3026H84.3647H81.4614H81.3152C80.8557 43.3026 80.5424 43.2405 80.3753 43.0955C80.2082 42.9713 80.1247 42.702 80.1247 42.3085V38.7878C79.2474 38.7878 78.4537 38.9328 77.7018 39.202C76.9708 39.4713 76.3651 39.8855 75.9056 40.4446C75.4461 40.9831 75.2163 41.6251 75.2163 42.3293C75.2163 42.9506 75.4461 43.4062 75.9265 43.7168C76.4068 44.0275 77.0543 44.1724 77.8898 44.1724C78.224 44.1724 78.5999 44.1517 78.9968 44.1103C79.2892 44.7316 79.8949 45.0423 80.8139 45.0423H81.4405H84.3438H84.678C85.6179 45.0423 86.3071 44.8559 86.7666 44.4831C87.2679 44.8559 87.978 45.0423 88.8553 45.0423H89.1477H89.1686H92.0509H92.0718H92.1762C92.7611 45.0423 93.2415 44.8559 93.6383 44.4831C94.2858 44.8766 95.1004 45.063 96.082 45.063C96.834 45.063 97.4815 44.8973 98.0454 44.5866C98.4005 44.8973 98.9226 45.0423 99.6119 45.0423H99.967H100.259C102.724 45.0423 104.437 44.7731 105.439 44.2346C105.648 43.6547 105.773 42.8263 105.773 41.7701C105.753 40.5689 105.502 39.5748 105.022 38.8707ZM103.58 41.3145C102.599 41.3145 102.097 41.0038 102.097 40.4032C102.097 40.1133 102.181 39.844 102.348 39.5955C102.515 39.3677 102.766 39.2434 103.121 39.2434C103.455 39.2434 103.747 39.4091 103.956 39.7612C104.165 40.1133 104.311 40.5896 104.395 41.2109C104.144 41.273 103.873 41.3145 103.58 41.3145ZM78.7253 42.702C78.5999 42.7227 78.412 42.7227 78.1613 42.7227C77.6183 42.7227 77.2005 42.6606 76.9081 42.5156C76.6157 42.3707 76.4695 42.205 76.4695 41.9979C76.4695 41.7079 76.6784 41.3973 77.0961 41.1074C77.5138 40.7967 78.0569 40.6103 78.7253 40.5275V42.702ZM96.2491 43.5304C95.6225 43.5304 95.0377 43.4269 94.5155 43.2405L94.62 43.0334C94.9542 42.4121 95.2048 41.9979 95.4137 41.7908C95.6225 41.5837 95.8732 41.4801 96.1656 41.4801C96.4789 41.4801 96.7086 41.6251 96.8757 41.8943C97.0428 42.1843 97.189 42.6606 97.3561 43.3648C97.0219 43.4683 96.6669 43.5304 96.2491 43.5304Z" fill="#2D2766"/>
<path d="M113.397 36.5301C113.418 38.5597 113.439 40.1544 113.439 41.2935C113.439 42.0805 113.418 42.7432 113.397 43.2402C113 43.3231 112.561 43.3645 112.081 43.3645H111.977H111.684C110.995 43.3645 110.535 43.1367 110.285 42.6603C110.243 42.5775 110.201 42.474 110.139 42.3704C110.097 42.2668 110.055 42.1633 110.034 42.0805C110.013 41.9976 109.971 41.8733 109.93 41.7284C109.888 41.5834 109.867 41.4799 109.846 41.397C109.825 41.3142 109.804 41.1899 109.742 40.9828C109.679 40.7757 109.658 40.6515 109.637 40.5686L108.196 41.0035C108.53 42.1633 108.697 43.0538 108.697 43.613C108.697 44.2964 108.509 44.8763 108.154 45.3319C107.799 45.8083 107.235 46.0361 106.483 46.0361C106.274 46.0361 106.066 46.0154 105.857 45.9947L105.731 47.4237C106.107 47.5065 106.483 47.5479 106.859 47.5479C107.757 47.5479 108.468 47.2787 108.99 46.7402C109.512 46.2018 109.846 45.4769 109.992 44.5657C110.368 44.8763 110.89 45.042 111.559 45.042H111.977H111.997H112.06C112.52 45.042 113 44.9799 113.501 44.8763C114.003 44.7728 114.379 44.6278 114.671 44.4828C114.796 44.0686 114.88 43.6337 114.922 43.116C114.963 42.5982 114.984 41.8941 114.984 40.9828C114.984 39.9887 114.984 38.4355 114.984 36.3438L113.397 36.5301Z" fill="#2D2766"/>
<path d="M117.031 45.1045H118.556V36.4062L117.031 36.5305V45.1045Z" fill="#2D2766"/>
<defs>
<linearGradient id="paint0_linear_2990_112284" x1="152.323" y1="6.12484" x2="152.323" y2="40.9997" gradientUnits="userSpaceOnUse">
<stop stop-color="#00ABAF"/>
<stop offset="0.24" stop-color="#0093B4"/>
<stop offset="0.48" stop-color="#0080BA"/>
<stop offset="1" stop-color="#774896"/>
</linearGradient>
<linearGradient id="paint1_linear_2990_112284" x1="147.253" y1="6.12387" x2="147.253" y2="40.9987" gradientUnits="userSpaceOnUse">
<stop stop-color="#00ABAF"/>
<stop offset="0.24" stop-color="#0093B4"/>
<stop offset="0.48" stop-color="#0080BA"/>
<stop offset="1" stop-color="#774896"/>
</linearGradient>
<linearGradient id="paint2_linear_2990_112284" x1="153.851" y1="6.12534" x2="153.851" y2="41.0002" gradientUnits="userSpaceOnUse">
<stop stop-color="#00ABAF"/>
<stop offset="0.24" stop-color="#0093B4"/>
<stop offset="0.48" stop-color="#0080BA"/>
<stop offset="1" stop-color="#774896"/>
</linearGradient>
<linearGradient id="paint3_linear_2990_112284" x1="145.164" y1="6.12442" x2="145.164" y2="40.9992" gradientUnits="userSpaceOnUse">
<stop stop-color="#29B2B2"/>
<stop offset="0.27" stop-color="#1091B3"/>
<stop offset="0.48" stop-color="#017EB5"/>
<stop offset="1" stop-color="#704B98"/>
</linearGradient>
<linearGradient id="paint4_linear_2990_112284" x1="136.477" y1="6.12394" x2="136.477" y2="40.9987" gradientUnits="userSpaceOnUse">
<stop stop-color="#00ABAF"/>
<stop offset="0.24" stop-color="#0093B4"/>
<stop offset="0.48" stop-color="#0080BA"/>
<stop offset="1" stop-color="#774896"/>
</linearGradient>
<linearGradient id="paint5_linear_2990_112284" x1="143.078" y1="6.12451" x2="143.078" y2="40.9993" gradientUnits="userSpaceOnUse">
<stop stop-color="#00ABAF"/>
<stop offset="0.24" stop-color="#0093B4"/>
<stop offset="0.48" stop-color="#0080BA"/>
<stop offset="1" stop-color="#774896"/>
</linearGradient>
<linearGradient id="paint6_linear_2990_112284" x1="138.005" y1="6.12529" x2="138.005" y2="41.0001" gradientUnits="userSpaceOnUse">
<stop stop-color="#00ABAF"/>
<stop offset="0.24" stop-color="#0093B4"/>
<stop offset="0.48" stop-color="#0080BA"/>
<stop offset="1" stop-color="#774896"/>
</linearGradient>
</defs>
</svg>
